<?xml version="1.0" encoding="UTF-8"?><!DOCTYPE svg PUBLIC "-//W3C//DTD SVG 1.1//EN" "http://www.w3.org/Graphics/SVG/1.1/DTD/svg11.dtd"><svg xmlns="http://www.w3.org/2000/svg" xmlns:xlink="http://www.w3.org/1999/xlink"><defs/><symbol id="icon-arrow" viewBox="0 0 36 36">
<path d="M23.5587,16.916 C24.1447,17.4999987 24.1467,18.446 23.5647,19.034 L16.6077,26.056 C16.3147,26.352 15.9287,26.4999987 15.5427,26.4999987 C15.1607,26.4999987 14.7787,26.355 14.4867,26.065 C13.8977,25.482 13.8947,24.533 14.4777,23.944 L20.3818,17.984 L14.4408,12.062 C13.8548,11.478 13.8528,10.5279 14.4378,9.941 C15.0218,9.354 15.9738,9.353 16.5588,9.938 L23.5588,16.916 L23.5587,16.916 Z"/>
</symbol><symbol id="icon-bookmark" viewBox="0 0 14.68 18.7"><path d="M14.18,17.97l-6.86-2.65-6.83,2.65V1.5C.5.95.95.5,1.5.5h11.68c.55,0,1,.45,1,1v16.47Z"/></symbol><symbol id="icon-check" viewBox="0 0 145.22 136.57"><polygon points="145.22 8.23 133.69 0 52.02 114.69 10.01 72.69 0 82.7 43.53 126.61 43.53 126.62 46.28 129.38 53.41 136.57 53.43 136.54 53.43 136.54 145.22 8.23"/></symbol><symbol id="icon-chevron" viewBox="0 0 17.26 30"><polygon points="17.25 15 16.13 13.87 3.39 1.13 2.26 0 0 2.26 1.14 3.39 12.75 15 1.13 26.62 0 27.75 2.26 30 3.39 28.87 16.13 16.13 17.26 15 17.25 15"/></symbol><symbol id="icon-heart" viewBox="0 0 640 640"><path d="M442.9 128C410.5 128 380 143.6 361 169.9L333 208.6C330 212.8 325.2 215.2 320 215.2C314.8 215.2 310 212.7 307 208.6L279 169.9L279 169.9C260 143.6 229.5 128 197.1 128C141.2 128 96 173.3 96 229.1C96 284.1 130.4 336.2 167.8 381.6C209.9 432.8 261.2 477.6 296.3 504.5C302.5 509.3 310.7 512 320 512C329.3 512 337.4 509.3 343.7 504.5C378.8 477.7 430.1 432.8 472.2 381.6C509.5 336.2 544 284.1 544 229.1C544 173.2 498.7 128 442.9 128zM335 151.1C360 116.5 400.2 96 442.9 96C516.4 96 576 155.6 576 229.1C576 296.5 534.4 356.4 496.9 401.9C452.8 455.5 399.6 502 363.1 529.8C350.7 539.2 335.5 543.9 320 543.9C304.5 543.9 289.2 539.3 276.9 529.8C240.4 502 187.2 455.5 143.1 402C105.6 356.4 64 296.5 64 229.1C64 155.6 123.6 96 197.1 96C239.8 96 280 116.5 305 151.1L320 171.8L335 151.1z"/></symbol><symbol id="icon-logo" viewBox="0 0 814.1 999.9"><path d="M788.1,340.9c-5.8,4.5-108.2,62.2-108.2,190.5,0,148.4,130.3,200.9,134.2,202.2-.6,3.2-20.7,71.9-68.7,141.9-42.8,61.6-87.5,123.1-155.5,123.1s-85.5-39.5-164-39.5-103.7,40.8-165.9,40.8-105.6-57-155.5-127C46.7,790.7,0,663,0,541.8,0,347.4,126.4,244.3,250.8,244.3c66.1,0,121.2,43.4,162.7,43.4s101.1-46,176.3-46c28.5,0,130.9,2.6,198.3,99.2h0ZM554.1,159.4c31.1-36.9,53.1-88.1,53.1-139.3,0-7.1-.6-14.3-1.9-20.1-50.6,1.9-110.8,33.7-147.1,75.8-28.5,32.4-55.1,83.6-55.1,135.5,0,7.8,1.3,15.6,1.9,18.1,3.2.6,8.4,1.3,13.6,1.3,45.4,0,102.5-30.4,135.5-71.3h0Z"/></symbol><symbol id="icon-share" viewBox="0 0 640 640"><path d="M360 224C373.3 224 384 213.3 384 200L384 112L544 272L384 432L384 344C384 330.7 373.3 320 360 320L256 320C185.3 320 128 377.3 128 448C128 456.3 128.7 464.1 130 471.2C111.8 447.8 96 414.1 96 368C96 288.5 160.5 224 240 224L360 224zM352 368L352 432C352 444.9 359.8 456.6 371.8 461.6C383.8 466.6 397.5 463.8 406.7 454.7L566.7 294.7C579.2 282.2 579.2 261.9 566.7 249.4L406.7 89.4C397.5 80.2 383.8 77.5 371.8 82.5C359.8 87.5 352 99.1 352 112L352 192L240 192C142.8 192 64 270.8 64 368C64 481.3 145.5 531.9 164.2 542.1C166.7 543.5 169.5 544 172.3 544C183.2 544 192 535.1 192 524.3C192 516.8 187.7 509.9 182.2 504.8C172.8 496 160 478.4 160 448.1C160 395.1 203 352.1 256 352.1L352 352.1L352 368.1z"/></symbol><symbol id="icon-trash" viewBox="0 0 448 512"><path d="M164.2 39.5L148.9 64H299.1L283.8 39.5c-2.9-4.7-8.1-7.5-13.6-7.5H177.7c-5.5 0-10.6 2.8-13.6 7.5zM311 22.6L336.9 64H384h32 16c8.8 0 16 7.2 16 16s-7.2 16-16 16H416V432c0 44.2-35.8 80-80 80H112c-44.2 0-80-35.8-80-80V96H16C7.2 96 0 88.8 0 80s7.2-16 16-16H32 64h47.1L137 22.6C145.8 8.5 161.2 0 177.7 0h92.5c16.6 0 31.9 8.5 40.7 22.6zM64 96V432c0 26.5 21.5 48 48 48H336c26.5 0 48-21.5 48-48V96H64zm80 80V400c0 8.8-7.2 16-16 16s-16-7.2-16-16V176c0-8.8 7.2-16 16-16s16 7.2 16 16zm96 0V400c0 8.8-7.2 16-16 16s-16-7.2-16-16V176c0-8.8 7.2-16 16-16s16 7.2 16 16zm96 0V400c0 8.8-7.2 16-16 16s-16-7.2-16-16V176c0-8.8 7.2-16 16-16s16 7.2 16 16z"/></symbol></svg>