<?xml version="1.0" encoding="UTF-8"?><!DOCTYPE svg PUBLIC "-//W3C//DTD SVG 1.1//EN" "http://www.w3.org/Graphics/SVG/1.1/DTD/svg11.dtd"><svg xmlns="http://www.w3.org/2000/svg" xmlns:xlink="http://www.w3.org/1999/xlink"><defs/><symbol id="icon-chevron" viewBox="0 0 17.26 30"><polygon points="17.25 15 16.13 13.87 3.39 1.13 2.26 0 0 2.26 1.14 3.39 12.75 15 1.13 26.62 0 27.75 2.26 30 3.39 28.87 16.13 16.13 17.26 15 17.25 15"/></symbol><symbol id="icon-logo" viewBox="0 0 814.1 999.9"><path d="M788.1,340.9c-5.8,4.5-108.2,62.2-108.2,190.5,0,148.4,130.3,200.9,134.2,202.2-.6,3.2-20.7,71.9-68.7,141.9-42.8,61.6-87.5,123.1-155.5,123.1s-85.5-39.5-164-39.5-103.7,40.8-165.9,40.8-105.6-57-155.5-127C46.7,790.7,0,663,0,541.8,0,347.4,126.4,244.3,250.8,244.3c66.1,0,121.2,43.4,162.7,43.4s101.1-46,176.3-46c28.5,0,130.9,2.6,198.3,99.2h0ZM554.1,159.4c31.1-36.9,53.1-88.1,53.1-139.3,0-7.1-.6-14.3-1.9-20.1-50.6,1.9-110.8,33.7-147.1,75.8-28.5,32.4-55.1,83.6-55.1,135.5,0,7.8,1.3,15.6,1.9,18.1,3.2.6,8.4,1.3,13.6,1.3,45.4,0,102.5-30.4,135.5-71.3h0Z"/></symbol></svg>